<svg xmlns="http://www.w3.org/2000/svg" width="1200" height="1200" viewBox="0 0 1200 1200" role="img" aria-labelledby="title desc">
  <title id="title">Lahore Grill House Instagram grid mockup</title>
  <desc id="desc">A branded nine post Instagram grid for Lahore Grill House with restaurant food and promotional tiles.</desc>
  <defs>
    <linearGradient id="dark" x1="0" x2="1" y1="0" y2="1">
      <stop stop-color="#17110d"/>
      <stop offset="1" stop-color="#050403"/>
    </linearGradient>
    <radialGradient id="plate" cx=".5" cy=".42" r=".55">
      <stop stop-color="#f29b38"/>
      <stop offset=".5" stop-color="#7d2d16"/>
      <stop offset="1" stop-color="#120806"/>
    </radialGradient>
    <style>
      .tile{stroke:#f5efe8;stroke-width:5}
      .brand{font:700 32px Georgia,serif;fill:#fff;letter-spacing:2px}
      .small{font:700 16px Arial,sans-serif;fill:#fff;letter-spacing:3px}
      .script{font:italic 56px Georgia,serif;fill:#f6a629}
      .headline{font:900 56px Arial,sans-serif;fill:#fff;letter-spacing:1px}
      .copy{font:700 28px Arial,sans-serif;fill:#fff}
    </style>
  </defs>
  <rect width="1200" height="1200" fill="#070503"/>
  <g>
    <rect class="tile" x="0" y="0" width="400" height="400" fill="url(#dark)"/>
    <circle cx="190" cy="245" r="150" fill="url(#plate)"/>
    <circle cx="145" cy="205" r="45" fill="#c4491e"/>
    <circle cx="230" cy="188" r="54" fill="#da5a22"/>
    <circle cx="245" cy="276" r="44" fill="#9b2f16"/>
    <path d="M75 300c70-25 190-23 250 4" fill="none" stroke="#f2cf90" stroke-width="16" stroke-linecap="round" opacity=".5"/>
    <text x="209" y="94" text-anchor="middle" class="script">Grilled</text>
    <text x="210" y="145" text-anchor="middle" class="copy">TO PERFECTION</text>
    <text x="200" y="340" text-anchor="middle" class="brand">LAHORE</text>
    <text x="200" y="363" text-anchor="middle" class="small">GRILL HOUSE</text>
  </g>
  <g transform="translate(400 0)">
    <rect class="tile" width="400" height="400" fill="#130c08"/>
    <circle cx="200" cy="214" r="118" fill="#d68a35"/>
    <rect x="88" y="190" width="224" height="75" rx="32" fill="#32180f"/>
    <path d="M95 180c30-58 178-70 224 0z" fill="#efb86b"/>
    <path d="M95 268c49 44 178 44 224 0z" fill="#c77838"/>
    <path d="M105 221h190" stroke="#f39227" stroke-width="24" stroke-linecap="round"/>
    <text x="205" y="82" text-anchor="middle" class="copy">Bold Flavours.</text>
    <text x="205" y="124" text-anchor="middle" class="script" font-size="42">Unforgettable Moments.</text>
    <text x="200" y="340" text-anchor="middle" class="brand">LAHORE</text>
    <text x="200" y="363" text-anchor="middle" class="small">GRILL HOUSE</text>
  </g>
  <g transform="translate(800 0)">
    <rect class="tile" width="400" height="400" fill="url(#dark)"/>
    <ellipse cx="205" cy="235" rx="165" ry="78" fill="#d69138"/>
    <path d="M70 235c90-62 205-64 285 0" fill="none" stroke="#f9e3a8" stroke-width="28" opacity=".65"/>
    <circle cx="145" cy="210" r="38" fill="#a53318"/>
    <circle cx="250" cy="220" r="42" fill="#b13b18"/>
    <text x="270" y="92" text-anchor="middle" class="copy">A TRADITION</text>
    <text x="270" y="126" text-anchor="middle" class="copy">OF TASTE</text>
    <text x="200" y="340" text-anchor="middle" class="brand">LAHORE</text>
    <text x="200" y="363" text-anchor="middle" class="small">GRILL HOUSE</text>
  </g>
  <g transform="translate(0 400)">
    <rect class="tile" width="400" height="400" fill="#100d09"/>
    <rect x="38" y="48" width="324" height="304" fill="none" stroke="#a76b2b" stroke-width="3"/>
    <text x="200" y="153" text-anchor="middle" class="headline" font-size="43">GOOD FOOD</text>
    <text x="200" y="210" text-anchor="middle" class="headline" font-size="43" fill="#f6a629">GOOD MOOD</text>
    <text x="200" y="267" text-anchor="middle" class="headline" font-size="43">GREAT MEMORIES</text>
    <text x="200" y="340" text-anchor="middle" class="brand">LAHORE</text>
    <text x="200" y="363" text-anchor="middle" class="small">GRILL HOUSE</text>
  </g>
  <g transform="translate(400 400)">
    <rect class="tile" width="400" height="400" fill="#16100c"/>
    <rect x="24" y="178" width="352" height="122" fill="#6b3b21"/>
    <g fill="#b86d35">
      <rect x="46" y="212" width="64" height="65" rx="6"/><rect x="142" y="212" width="64" height="65" rx="6"/><rect x="238" y="212" width="64" height="65" rx="6"/>
    </g>
    <g stroke="#f3a23a" stroke-width="6">
      <line x1="80" y1="54" x2="80" y2="135"/><line x1="200" y1="44" x2="200" y2="135"/><line x1="320" y1="54" x2="320" y2="135"/>
    </g>
    <g fill="#f3a23a"><circle cx="80" cy="145" r="28"/><circle cx="200" cy="145" r="34"/><circle cx="320" cy="145" r="28"/></g>
    <text x="200" y="191" text-anchor="middle" class="brand">LAHORE</text>
    <text x="200" y="216" text-anchor="middle" class="small">GRILL HOUSE</text>
  </g>
  <g transform="translate(800 400)">
    <rect class="tile" width="400" height="400" fill="#fff9ec"/>
    <path d="M0 65c111-30 263-24 400 16v262c-124 33-267 32-400 1z" fill="#f8a51d"/>
    <text x="200" y="156" text-anchor="middle" font-family="Arial,sans-serif" font-size="66" font-weight="900" fill="#111">WEEKEND</text>
    <text x="200" y="213" text-anchor="middle" class="script" fill="#111">Special</text>
    <text x="200" y="285" text-anchor="middle" font-family="Arial,sans-serif" font-size="102" font-weight="900" fill="#111">20%</text>
    <text x="200" y="325" text-anchor="middle" class="copy" fill="#111">OFF THIS SAT &amp; SUN</text>
  </g>
  <g transform="translate(0 800)">
    <rect class="tile" width="400" height="400" fill="url(#dark)"/>
    <ellipse cx="204" cy="235" rx="150" ry="90" fill="#732514"/>
    <circle cx="142" cy="215" r="52" fill="#c9431b"/><circle cx="226" cy="215" r="52" fill="#df6926"/><circle cx="262" cy="270" r="45" fill="#b83c19"/>
    <text x="124" y="105" text-anchor="middle" class="copy">SIZZLING</text>
    <text x="126" y="153" text-anchor="middle" class="script">Delights</text>
    <text x="200" y="340" text-anchor="middle" class="brand">LAHORE</text>
    <text x="200" y="363" text-anchor="middle" class="small">GRILL HOUSE</text>
  </g>
  <g transform="translate(400 800)">
    <rect class="tile" width="400" height="400" fill="#17100d"/>
    <rect x="116" y="188" width="168" height="118" rx="18" fill="#3a1d15"/>
    <circle cx="200" cy="170" r="72" fill="#fff7e2"/>
    <path d="M144 180c38 53 100 53 138 0" fill="none" stroke="#6b2518" stroke-width="14" stroke-linecap="round"/>
    <text x="200" y="86" text-anchor="middle" class="copy">SWEET ENDINGS</text>
    <text x="200" y="133" text-anchor="middle" class="script">Perfect Memories</text>
    <text x="200" y="340" text-anchor="middle" class="brand">LAHORE</text>
    <text x="200" y="363" text-anchor="middle" class="small">GRILL HOUSE</text>
  </g>
  <g transform="translate(800 800)">
    <rect class="tile" width="400" height="400" fill="#150e0b"/>
    <path d="M64 248c82-112 189-149 300-96-50 115-174 160-300 96z" fill="#ead2aa"/>
    <path d="M96 238c74-63 153-88 238-61" stroke="#7a351e" stroke-width="34" stroke-linecap="round"/>
    <path d="M132 222c72 19 125 15 182-16" stroke="#f4b33c" stroke-width="20" stroke-linecap="round"/>
    <text x="248" y="100" text-anchor="middle" class="copy">ROLL INTO</text>
    <text x="248" y="148" text-anchor="middle" class="script">Happiness</text>
    <text x="200" y="340" text-anchor="middle" class="brand">LAHORE</text>
    <text x="200" y="363" text-anchor="middle" class="small">GRILL HOUSE</text>
  </g>
</svg>
